<svg xmlns="http://www.w3.org/2000/svg" width="900" height="240" viewBox="0 0 900 240" font-family="Segoe UI, -apple-system, Roboto, Arial, sans-serif">
  <defs>
    <radialGradient id="nebula" cx="78%" cy="115%" r="90%">
      <stop offset="0%" stop-color="#2a1a5e"/>
      <stop offset="45%" stop-color="#10142e"/>
      <stop offset="100%" stop-color="#05060f"/>
    </radialGradient>
    <radialGradient id="vig" cx="50%" cy="50%" r="75%">
      <stop offset="60%" stop-color="#000000" stop-opacity="0"/>
      <stop offset="100%" stop-color="#000000" stop-opacity="0.6"/>
    </radialGradient>
    <radialGradient id="planet" cx="35%" cy="30%" r="75%">
      <stop offset="0%" stop-color="#a5f3fc"/>
      <stop offset="100%" stop-color="#6366f1"/>
    </radialGradient>
    <linearGradient id="title" x1="0%" y1="0%" x2="100%" y2="0%">
      <stop offset="0%" stop-color="#ffffff"/>
      <stop offset="100%" stop-color="#c7d2fe"/>
    </linearGradient>
    <pattern id="scan" width="4" height="4" patternUnits="userSpaceOnUse">
      <path d="M0 0 H4 M0 2 H4" stroke="#ffffff" stroke-opacity="0.025"/>
    </pattern>
  </defs>

  <rect width="900" height="240" fill="url(#nebula)"/>

  <g fill="#e0f2fe">
    <circle cx="60" cy="40" r="1" opacity="0.8"/>
    <circle cx="140" cy="90" r="1.2" opacity="0.5"/>
    <circle cx="230" cy="24" r="0.9" opacity="0.6"/>
    <circle cx="310" cy="150" r="1.1" opacity="0.4"/>
    <circle cx="90" cy="190" r="1" opacity="0.5"/>
    <circle cx="180" cy="220" r="1.2" opacity="0.35"/>
    <circle cx="290" cy="205" r="0.8" opacity="0.55"/>
    <circle cx="400" cy="30" r="1" opacity="0.6"/>
    <circle cx="470" cy="120" r="1.2" opacity="0.4"/>
    <circle cx="540" cy="60" r="0.9" opacity="0.7"/>
    <circle cx="640" cy="170" r="1" opacity="0.45"/>
    <circle cx="700" cy="30" r="1.1" opacity="0.5"/>
    <circle cx="370" cy="230" r="0.9" opacity="0.4"/>
    <circle cx="500" cy="210" r="1" opacity="0.35"/>
    <circle cx="600" cy="225" r="1.2" opacity="0.3"/>
    <circle cx="780" cy="210" r="1" opacity="0.45"/>
    <circle cx="850" cy="180" r="0.9" opacity="0.5"/>
    <circle cx="860" cy="40" r="1" opacity="0.6"/>
  </g>

  <g fill="#7dd3fc">
    <path d="M310,140 C313,132 320,127 328,127 C336,127 343,132 346,140 C343,148 336,153 328,153 C320,153 313,148 310,140 Z" opacity="0.7"/>
    <path d="M90,180 C92,175 96,172 101,172 C106,172 110,175 112,180 C110,185 106,188 101,188 C96,188 92,185 90,180 Z" opacity="0.6"/>
  </g>

  <g>
    <circle cx="820" cy="74" r="24" fill="url(#planet)"/>
    <ellipse cx="820" cy="74" rx="52" ry="13" fill="none" stroke="#67e8f9" stroke-opacity="0.45" stroke-width="3" transform="rotate(-18 820 74)"/>
  </g>

  <g>
    <animate attributeName="opacity" values="1;0.2;1" dur="1.2s" repeatCount="indefinite"/>
    <circle cx="700" cy="212" r="4" fill="#f87171"/>
  </g>
  <text x="712" y="217" font-size="12" font-weight="700" letter-spacing="1" fill="#f87171">REC</text>
  <text x="852" y="217" text-anchor="end" font-size="12" font-family="Consolas, monospace" fill="#64748b">28·08·2026</text>

  <text x="450" y="58" text-anchor="middle" font-size="15" font-weight="700" letter-spacing="5" fill="#67e8f9">TRANSMISIÓN 001 — BIENVENIDO</text>
  <text x="450" y="126" text-anchor="middle" font-size="64" font-weight="900" fill="url(#title)">MAUSIN18</text>
  <text x="450" y="162" text-anchor="middle" font-size="16" font-weight="600" letter-spacing="2" fill="#94a3b8">· DESARROLLADOR DE PLUGINS · RED 1.8 → 26.2+ ·</text>

  <rect width="900" height="240" fill="#000000" opacity="0" pointer-events="none"/>
  <rect width="900" height="240" fill="url(#scan)" pointer-events="none"/>
  <rect width="900" height="240" fill="url(#vig)"/>
</svg>