<svg xmlns="http://www.w3.org/2000/svg" width="900" height="200" viewBox="0 0 900 200" font-family="Segoe UI, -apple-system, Roboto, Arial, sans-serif">
  <defs>
    <linearGradient id="rainbow" x1="0%" y1="0%" x2="100%" y2="0%">
      <stop offset="0%" stop-color="#ff0000"/>
      <stop offset="17%" stop-color="#ffa500"/>
      <stop offset="33%" stop-color="#ffff00"/>
      <stop offset="50%" stop-color="#00ff00"/>
      <stop offset="67%" stop-color="#0000ff"/>
      <stop offset="83%" stop-color="#8b00ff"/>
      <stop offset="100%" stop-color="#ff00ff"/>
    </linearGradient>
    <pattern id="check" width="40" height="20" patternUnits="userSpaceOnUse">
      <rect width="20" height="20" fill="#000000"/>
      <rect x="20" width="20" height="20" fill="#ffffff"/>
    </pattern>
  </defs>

  <rect width="900" height="200" fill="#3366cc"/>
  <rect y="0" width="900" height="20" fill="url(#check)"/>
  <rect y="180" width="900" height="20" fill="url(#check)"/>
  <rect x="3" y="3" width="894" height="194" fill="none" stroke="#000000" stroke-width="6"/>

  <path d="M70,62 C74,78 74,86 70,102 C66,86 66,78 70,62 Z" fill="#ffffff"/>
  <path d="M70,50 C78,62 88,66 70,74 C52,66 62,62 70,50 Z" fill="#ffff33"/>
  <path d="M830,100 C834,116 834,124 830,140 C826,124 826,116 830,100 Z" fill="#ffffff"/>
  <path d="M830,88 C838,100 848,104 830,112 C812,104 822,100 830,88 Z" fill="#ffff33"/>

  <text x="450" y="64" text-anchor="middle" font-size="22" font-weight="700" letter-spacing="5" fill="#ffffff">~ WELCOME TO MY HOME-PAGE ~</text>
  <text x="450" y="130" text-anchor="middle" font-size="64" font-weight="900" letter-spacing="1" fill="url(#rainbow)">MAUSIN18'S CORNER</text>
  <text x="450" y="170" text-anchor="middle" font-size="15" font-weight="700" letter-spacing="3" fill="#ffff33">· THE ULTIMATE MINECRAFT PLUGIN WEB-ZONE ·</text>

  <g font-size="16" fill="#ffffff">
    <text x="14" y="172">☺</text>
    <text x="866" y="172">☺</text>
  </g>
</svg>