<svg xmlns="http://www.w3.org/2000/svg" width="800" height="240" viewBox="0 0 800 240" font-family="Segoe UI, -apple-system, Roboto, sans-serif">
  <defs>
    <linearGradient id="bg" x1="0%" y1="0%" x2="100%" y2="100%">
      <stop offset="0%" stop-color="#0f172a"/>
      <stop offset="60%" stop-color="#131a3a"/>
      <stop offset="100%" stop-color="#1e1b4b"/>
    </linearGradient>
    <linearGradient id="accent" x1="0%" y1="0%" x2="100%" y2="100%">
      <stop offset="0%" stop-color="#38bdf8"/>
      <stop offset="100%" stop-color="#818cf8"/>
    </linearGradient>
    <linearGradient id="title" x1="0%" y1="0%" x2="100%" y2="0%">
      <stop offset="0%" stop-color="#ffffff"/>
      <stop offset="100%" stop-color="#c7d2fe"/>
    </linearGradient>
  </defs>

  <rect width="800" height="240" rx="28" fill="url(#bg)"/>

  <g fill="#e0f2fe">
    <circle cx="96"  cy="52"  r="1.6" opacity="0.5"/>
    <circle cx="210" cy="170" r="1.2" opacity="0.35"/>
    <circle cx="330" cy="38"  r="1.4" opacity="0.4"/>
    <circle cx="470" cy="150" r="1.2" opacity="0.28"/>
    <circle cx="590" cy="40"  r="1.5" opacity="0.4"/>
    <circle cx="720" cy="180" r="1.6" opacity="0.45"/>
    <circle cx="150" cy="214" r="1.2" opacity="0.3"/>
    <circle cx="410" cy="212" r="1.3" opacity="0.35"/>
  </g>

  <g opacity="0.9">
    <circle cx="660" cy="118" r="34" fill="none" stroke="#38bdf8" stroke-opacity="0.35" stroke-width="1.5" stroke-dasharray="4 7"/>
    <circle cx="660" cy="118" r="52" fill="none" stroke="#38bdf8" stroke-opacity="0.2" stroke-width="1.5"/>
    <circle cx="660" cy="118" r="70" fill="none" stroke="#38bdf8" stroke-opacity="0.12" stroke-width="1.5"/>
    <circle cx="704" cy="76" r="4" fill="#38bdf8"/>
    <circle cx="660" cy="118" r="2" fill="#818cf8"/>
    <rect x="656" y="114" width="8" height="28" rx="3" fill="#38bdf8" opacity="0.25"/>
  </g>

  <rect x="56" y="42" width="190" height="26" rx="13" fill="#38bdf8" fill-opacity="0.12" stroke="#38bdf8" stroke-opacity="0.4"/>
  <circle cx="70" cy="55" r="3" fill="#38bdf8"/>
  <text x="86" y="59" font-size="11" font-weight="700" letter-spacing="1.4" fill="#7dd3fc">SERVER OWNER & PLUGIN DEV</text>

  <text x="56" y="120" font-size="58" font-weight="800" fill="url(#title)">Mausin18</text>
  <text x="57" y="156" font-size="19" fill="#cbd5e1">Desarrollador de plugins de Minecraft · dueño de SateliteCraft</text>

  <rect x="56" y="182" width="150" height="3" rx="1.5" fill="url(#accent)"/>

  <g font-size="11" font-weight="700" letter-spacing="1">
    <g>
      <rect x="56" y="204" width="72" height="24" rx="12" fill="#38bdf8" fill-opacity="0.1" stroke="#38bdf8" stroke-opacity="0.4"/>
      <text x="92" y="220" text-anchor="middle" fill="#7dd3fc">JAVA</text>
    </g>
    <g>
      <rect x="136" y="204" width="82" height="24" rx="12" fill="#38bdf8" fill-opacity="0.1" stroke="#38bdf8" stroke-opacity="0.4"/>
      <text x="177" y="220" text-anchor="middle" fill="#7dd3fc">PAPER</text>
    </g>
    <g>
      <rect x="226" y="204" width="92" height="24" rx="12" fill="#38bdf8" fill-opacity="0.1" stroke="#38bdf8" stroke-opacity="0.4"/>
      <text x="272" y="220" text-anchor="middle" fill="#7dd3fc">SPIGOT</text>
    </g>
    <g>
      <rect x="326" y="204" width="96" height="24" rx="12" fill="#38bdf8" fill-opacity="0.1" stroke="#38bdf8" stroke-opacity="0.4"/>
      <text x="374" y="220" text-anchor="middle" fill="#7dd3fc">BUNGEE</text>
    </g>
    <g>
      <rect x="430" y="204" width="86" height="24" rx="12" fill="#38bdf8" fill-opacity="0.1" stroke="#38bdf8" stroke-opacity="0.4"/>
      <text x="473" y="220" text-anchor="middle" fill="#7dd3fc">MAVEN</text>
    </g>
  </g>
</svg>